<svg xmlns="http://www.w3.org/2000/svg" width="651" height="205.998" viewBox="0 0 651 205.998"><g transform="translate(-233 -27)"><path d="M-11819-16383.348V-16509a10,10,0,0,1,10-10h631a10,10,0,0,1,10,10v125.65c-66.716,42.174-187.528,70.346-325.5,70.346S-11752.284-16341.174-11819-16383.348Z" transform="translate(12052 16546)" fill="#f5f5f5"/><g transform="translate(443.883 63.922)"><rect width="62.738" height="30.758" rx="15.379" transform="translate(97.106 103.82)" fill="#fff"/><rect width="29.33" height="11.609" rx="5.805" transform="translate(163.776 72.199)" fill="rgba(55,46,149,0.62)"/><rect width="29.33" height="11.609" rx="5.805" transform="translate(30.479 110.895)" fill="rgba(55,46,149,0.62)"/><rect width="81.902" height="27.124" rx="13.562" transform="translate(118.894 33.756)" fill="#fff"/><rect width="57.33" height="33.248" rx="16.624" transform="translate(29.439 44.756)" fill="#fff"/><circle cx="37.842" cy="37.842" r="37.842" transform="translate(67.499 34.537)" fill="#efebf7"/><path d="M504.032,237.1a37.842,37.842,0,1,1-34.807,33.609l.969.106a36.868,36.868,0,1,0,33.91-32.743Z" transform="translate(-401.501 -202.463)" fill="#efebf7" stroke="#372e95" stroke-width="1"/><g transform="translate(6.457 -45.441)"><circle cx="16.012" cy="16.012" r="16.012" transform="translate(82.469 100.879)" fill="#372e95"/><path d="M684.577,69.587c-8.682-7.093-24.083-8.462-26.235,6.769,0,3.647-11.389,6.616-10.932-3.58.846-18.859,22.391-21.089,31.679-18.859C690.383,56.629,700.8,65.942,700.8,80c0,18.381-18.974,30.366-25.98,33.142s-7.222,9.086-9.81,10.4c-3.97,2.018-7.561.352-6.672-5.142,1.886-11.651,8.838-13.7,16.482-17.574C690.872,96.359,693.258,76.68,684.577,69.587Z" transform="translate(-563.119 -6.524)" fill="#372e95" stroke="#fff" stroke-width="1"/></g><path d="M520.1,237.152a55.2,55.2,0,1,1-44.271,81.638c1.285-.606-.357.168,1.246-.685A53.776,53.776,0,1,0,520.2,238.57Z" transform="translate(283.366 -501.623) rotate(78)" fill="none" stroke="rgba(55,46,149,0.5)" stroke-width="0.5"/></g></g></svg>