<svg xmlns="http://www.w3.org/2000/svg" width="650" height="204.998" viewBox="0 0 650 204.998"><g transform="translate(-88.001 -27)"><path d="M-7489-16378.6V-16508a10,10,0,0,1,10-10h630a10,10,0,0,1,10,10v121.307c-65.705,44.017-189.555,73.689-331.5,73.689C-7303.575-16313-7420.734-16339.075-7489-16378.6Z" transform="translate(7577 16545)" fill="#f5f5f5"/><g transform="translate(-2637.178 -3622.973)"><rect width="62.738" height="30.758" rx="15.379" transform="translate(3038.667 3790.715)" fill="#fff"/><rect width="29.33" height="11.609" rx="5.805" transform="translate(3111.337 3759.094)" fill="rgba(226,105,14,0.62)"/><rect width="81.902" height="27.124" rx="13.562" transform="translate(3060.454 3720.65)" fill="#fff"/><rect width="57.33" height="33.248" rx="16.624" transform="translate(2971 3731.65)" fill="#fff"/><g transform="translate(3006.369 3682.826)"><ellipse cx="36.237" cy="36.778" rx="36.237" ry="36.778" transform="translate(0 47.213)" fill="#ffeee1"/><ellipse cx="15.685" cy="16.225" rx="15.685" ry="16.225" transform="translate(20.552 67.765)" fill="#e2690e"/><path d="M6.751,79.928c-3.69-18.817-10.1-60.708-4.632-72.8C4.186,3.932,11.022-.738,20.569.1s13.975,7.7,14.6,10.929c3.141,4.467-9.742,36.2-24.025,68.9-1.742,3.988-3.612,1.331-4.4,0Z" transform="matrix(0.968, 0.252, -0.252, 0.968, 47.262, 1.134)" fill="#e2690e"/><path d="M502.492,237.1a36.179,36.179,0,1,1-33.276,32.131l.926.1a35.247,35.247,0,1,0,32.419-31.3Z" transform="translate(-468.884 -189.59)" fill="#e2690e" stroke="#e2690e" stroke-width="1"/><path d="M10.052,83.889c-1.647,0-2.785-1.929-3.159-2.563l-.081-.137-.031-.156C6.315,78.657-4.556,22.653,2.214,7.676l.029-.063.038-.058C4.243,4.518,10.387,0,19.271,0c.765,0,1.546.034,2.319.1,9.95.872,14.611,8.007,15.4,11.5,2.51,4.447-4.721,25.363-24.049,69.621C12.166,82.993,11.2,83.888,10.052,83.889ZM8.57,80.517c.9,1.473,1.423,1.517,1.482,1.517.189,0,.652-.327,1.187-1.551,18.286-41.871,26.4-64.748,24.116-68l-.114-.162-.038-.194c-.579-2.979-4.708-9.388-13.774-10.182-.72-.063-1.446-.1-2.157-.1-8.027,0-13.675,4.054-15.4,6.65C-1.284,20.115,4.668,60.566,8.57,80.517Z" transform="matrix(0.968, 0.252, -0.252, 0.968, 46.585, 0)" fill="#fff"/><path d="M520.6,237.154a55.739,55.739,0,1,1-51.268,49.5l1.427.157a54.3,54.3,0,1,0,49.947-48.229Z" transform="matrix(0.438, 0.899, -0.899, 0.438, 69.376, -516.372)" fill="none" stroke="rgba(226,105,14,0.5)" stroke-width="0.5"/><rect width="29.33" height="11.609" rx="5.805" transform="translate(-50.33 114.963)" fill="rgba(226,105,14,0.62)"/></g></g></g></svg>