<svg xmlns="http://www.w3.org/2000/svg" width="504.998" height="205.998" viewBox="0 0 504.998 205.998"><g transform="translate(-233.002 -27)"><path d="M-16075-16383.113V-16509a10,10,0,0,1,10-10h485a10,10,0,0,1,10,10v125.881c-51.871,42.044-145.551,70.115-252.5,70.115S-16023.127-16341.069-16075-16383.113Z" transform="translate(16308 16546)" fill="#f5f5f5"/><g transform="translate(370.883 63.922)"><rect width="62.738" height="30.758" rx="15.379" transform="translate(97.106 103.82)" fill="#fff"/><rect width="29.33" height="11.609" rx="5.805" transform="translate(163.776 72.199)" fill="rgba(202,29,52,0.62)"/><rect width="29.33" height="11.609" rx="5.805" transform="translate(30.479 110.895)" fill="rgba(202,29,52,0.62)"/><rect width="81.902" height="27.124" rx="13.562" transform="translate(118.894 33.756)" fill="#fff"/><rect width="57.33" height="33.248" rx="16.624" transform="translate(29.439 44.756)" fill="#fff"/><circle cx="37.842" cy="37.842" r="37.842" transform="translate(67.499 34.537)" fill="#ffecee"/><path d="M504.032,237.1a37.842,37.842,0,1,1-34.807,33.609l.969.106a36.868,36.868,0,1,0,33.91-32.743Z" transform="translate(-401.501 -202.463)" fill="#efebf7" stroke="#ca1d34" stroke-width="1"/><path d="M504.032,237.1a37.842,37.842,0,1,1-34.807,33.609l.969.106a36.868,36.868,0,1,0,33.91-32.743Z" transform="translate(-401.501 -202.463)" fill="#efebf7" stroke="#ca1d34" stroke-width="1"/><path d="M573.166,299.532a52.56,52.56,0,0,1-103.852-15.707l1.345.148a51.206,51.206,0,0,0,101.177,15.3C573.189,299.687,571.846,299.12,573.166,299.532Z" transform="matrix(0.788, 0.616, -0.616, 0.788, -128.311, -478.149)" fill="none" stroke="rgba(202,29,52,0.5)" stroke-width="0.5"/><path d="M-7437.347-15567.5a2.773,2.773,0,0,1-.125-3.831l28.4-31.908-29.784-25.91a5.4,5.4,0,0,1-.192-8l4.158-3.984a5.549,5.549,0,0,1,7.938.274l25.909,28.6,25.466-28.614a5.578,5.578,0,0,1,8.111-.2l4.043,4.095a5.392,5.392,0,0,1-.267,7.841l-29.213,25.868,28.4,31.345a2.791,2.791,0,0,1-.11,3.867,2.871,2.871,0,0,1-3.887.117l-32.435-28.215-32.489,28.769a2.858,2.858,0,0,1-1.9.718A2.866,2.866,0,0,1-7437.347-15567.5Z" transform="translate(7520.592 15664.48)" fill="#ca1d34" stroke="#fff" stroke-width="1"/></g></g></svg>