<svg xmlns="http://www.w3.org/2000/svg" width="505" height="205.997" viewBox="0 0 505 205.997"><g transform="translate(-233 -27.002)"><path d="M-18152-16383.114V-16509a10,10,0,0,1,10-10h485a10,10,0,0,1,10,10v125.884c-51.871,42.045-145.549,70.113-252.5,70.113S-18100.129-16341.07-18152-16383.114Z" transform="translate(18385 16546)" fill="#f5f5f5"/><g transform="translate(370.883 63.922)"><rect width="62.738" height="30.758" rx="15.379" transform="translate(97.106 103.82)" fill="#fff"/><rect width="29.33" height="11.609" rx="5.805" transform="translate(163.776 72.199)" fill="rgba(55,46,149,0.62)"/><rect width="29.33" height="11.609" rx="5.805" transform="translate(29.479 110.895)" fill="rgba(55,46,149,0.62)"/><rect width="81.902" height="27.124" rx="13.562" transform="translate(118.894 33.756)" fill="#fff"/><rect width="57.33" height="33.248" rx="16.624" transform="translate(29.439 44.756)" fill="#fff"/><circle cx="37.842" cy="37.842" r="37.842" transform="translate(67.499 34.537)" fill="#e3e1ff"/><path d="M504.032,237.1a37.842,37.842,0,1,1-34.807,33.609l.969.106a36.868,36.868,0,1,0,33.91-32.743Z" transform="translate(-401.501 -202.463)" fill="#e8e5ff" stroke="#372e95" stroke-width="1"/><path d="M504.032,237.1a37.842,37.842,0,1,1-34.807,33.609l.969.106a36.868,36.868,0,1,0,33.91-32.743Z" transform="translate(-401.502 -202.463)" fill="#e8e5ff" stroke="#372e95" stroke-width="1"/><path d="M520.193,237.152a55.3,55.3,0,1,1-50.863,49.113l1.416.155A53.876,53.876,0,1,0,520.3,238.573Z" transform="translate(397.639 -451.919) rotate(90)" fill="none" stroke="rgba(55,46,149,0.5)" stroke-width="0.5"/><path d="M256.06,26.124a7.023,7.023,0,0,1-.233-9.93L269.164,2.215a21.408,21.408,0,0,0-29.844,25.8L205.6,69.6a5.032,5.032,0,0,0,7.261,6.923l39.289-35.087a21.406,21.406,0,0,0,26.861-29.192L265.99,25.891A7.023,7.023,0,0,1,256.06,26.124ZM213.8,72.381a3.725,3.725,0,1,1-3.725-3.725A3.725,3.725,0,0,1,213.8,72.381Z" transform="translate(-106.967 3.002)" fill="#372e95" stroke="#fff" stroke-width="1" fill-rule="evenodd"/></g></g></svg>